<svg width="16" height="16" viewBox="0 0 16 16" fill="none" xmlns="http://www.w3.org/2000/svg">
<g clip-path="url(#clip0)">
<path d="M15.65 7.07501L13.775 4.87501C13.5 4.60001 13.1 4.55001 12.85 4.80001C12.575 5.07501 12.525 5.47501 12.775 5.72501L14.1 7.32501H0.675C0.275 7.32501 0 7.60001 0 8.00001C0 8.40001 0.275 8.67501 0.675 8.67501H14.125L12.8 10.275C12.525 10.55 12.6 11 12.875 11.2C13 11.325 13.15 11.325 13.275 11.325C13.475 11.325 13.675 11.25 13.8 11.05L15.675 8.85001C16.125 8.42501 16.125 7.62501 15.65 7.07501Z" fill="#3F4549"/>
</g>
<defs>
<clipPath id="clip0">
<rect width="16" height="16" fill="white"/>
</clipPath>
</defs>
</svg>
