<svg width="100%" height="100%" viewBox="0 0 16 16" fill="none" xmlns="http://www.w3.org/2000/svg">
<g>
<path d="M15.325 7.32495H0.675C0.275 7.32495 0 7.59995 0 7.99995C0 8.39995 0.275 8.67495 0.675 8.67495H15.35C15.75 8.67495 16.025 8.39995 16.025 7.99995C16 7.59995 15.725 7.32495 15.325 7.32495Z" fill="#3F4549"/>
<path d="M15.325 12H0.675C0.275 12 0 12.275 0 12.675C0 13.075 0.275 13.35 0.675 13.35H15.35C15.75 13.35 16.025 13.075 16.025 12.675C16 12.275 15.725 12 15.325 12Z" fill="#3F4549"/>
<path d="M0.675 3.9999H15.35C15.75 3.9999 16.025 3.7249 16.025 3.3249C16.025 2.9249 15.75 2.6499 15.35 2.6499H0.675C0.275 2.6499 0 2.9249 0 3.3249C0 3.7249 0.275 3.9999 0.675 3.9999Z" fill="#3F4549"/>
</g>
<defs>
<clipPath id="clip0">
<rect width="16" height="16" fill="white"/>
</clipPath>
</defs>
</svg>
