<svg width="16" height="10" viewBox="0 0 16 10" fill="none" xmlns="http://www.w3.org/2000/svg">
<path d="M15.2 0.274994H0.8C0.35 0.274994 0 0.624994 0 1.07499V8.92499C0 9.37499 0.35 9.72499 0.8 9.72499H15.175C15.625 9.72499 15.975 9.37499 15.975 8.92499V1.07499C16 0.624994 15.625 0.274994 15.2 0.274994ZM15.075 8.79999H0.95V1.19999H15.075V8.79999Z" fill="#3F4549"/>
<path d="M6.5 7.6C7 7.6 7.475 7.47499 7.875 7.19999C8.325 7.49999 8.85 7.69999 9.4 7.69999C10.9 7.69999 12.1 6.475 12.1 4.99999C12.1 3.525 10.875 2.3 9.4 2.3C8.85 2.3 8.3 2.475 7.875 2.8C7.45 2.5 7 2.375 6.5 2.375C5.05 2.375 3.875 3.55 3.875 4.99999C3.875 6.45 5.05 7.6 6.5 7.6ZM8.425 3.25C8.725 3.075 9.05 3 9.4 3C10.5 3 11.425 3.89999 11.425 5.02499C11.45 6.14999 10.55 7.04999 9.425 7.04999C9.05 7.04999 8.725 6.95 8.45 6.79999C8.875 6.325 9.15 5.725 9.15 5.05C9.125 4.325 8.875 3.7 8.425 3.25Z" fill="#3F4549"/>
</svg>
