<svg width="16" height="16" viewBox="0 0 16 16" fill="none" xmlns="http://www.w3.org/2000/svg">
<path d="M8.85003 8.00005L13.825 3.02505C14.075 2.77505 14.075 2.42505 13.825 2.17505C13.575 1.92505 13.225 1.92505 12.975 2.17505L8.00003 7.15005L3.00003 2.20005C2.77503 1.95005 2.40003 1.95005 2.17503 2.20005C1.95003 2.45005 1.92503 2.80005 2.17503 3.05005L7.15003 8.00005L2.17503 12.975C1.92503 13.225 1.92503 13.575 2.17503 13.825C2.30003 13.925 2.42503 14 2.60003 14C2.77503 14 2.90003 13.95 3.02503 13.825L8.02503 8.85005L13.025 13.8C13.15 13.9 13.325 13.975 13.45 13.975C13.575 13.975 13.75 13.925 13.875 13.8C14.125 13.55 14.125 13.2 13.875 12.95L8.85003 8.00005Z" fill="#3F4549"/>
</svg>
