<svg width="16" height="16" viewBox="0 0 16 16" fill="none" xmlns="http://www.w3.org/2000/svg">
<path d="M8 0C4.675 0 2 2.8 2 6.325C2 9.325 6.125 14.25 7.4 15.725C7.525 15.925 7.8 16 8 16C8.275 16 8.475 15.875 8.6 15.725C9.875 14.275 14 9.275 14 6.325C14 2.8 11.325 0 8 0ZM8 14.4C5.725 11.725 3.325 8.2 3.325 6.325C3.325 3.525 5.4 1.325 8 1.325C10.6 1.325 12.675 3.6 12.675 6.325C12.675 8.2 10.275 11.725 8 14.4Z" fill="#3F4549"/>
<path d="M8.0002 3.32501C6.5252 3.32501 5.3252 4.52501 5.3252 6.00001C5.3252 7.47501 6.5252 8.67501 8.0002 8.67501C9.4752 8.67501 10.6752 7.47501 10.6752 6.00001C10.6752 4.52501 9.4752 3.32501 8.0002 3.32501ZM8.0002 7.32501C7.2752 7.32501 6.6752 6.72501 6.6752 6.00001C6.6752 5.27501 7.2752 4.67501 8.0002 4.67501C8.7252 4.67501 9.3252 5.27501 9.3252 6.00001C9.3252 6.72501 8.7252 7.32501 8.0002 7.32501Z" fill="#3F4549"/>
</svg>
