<svg width="87" height="80" viewBox="0 0 87 80" fill="none" xmlns="http://www.w3.org/2000/svg">
<path d="M12.6575 3.85538C-11.8244 7.90358 4.78594 56.6265 16.0309 80C10.4888 55.4217 -0.354596 10.8433 18.1996 11.3253C20.3683 11.2449 24.9466 11.3253 32.4165 15.4217C47.5973 23.1325 60.8503 15.9839 66.1515 11.8072C60.2077 13.1727 50.4888 15.1807 39.6455 11.3253C25.4286 5.30116 24.2238 2.40961 12.6575 3.85538Z" fill="#70838D"/>
<path d="M67.5972 58.0724C39.6454 75.4218 17.9586 53.2531 17.9586 40.241C29.2839 56.3856 50.9707 68.6748 75.549 46.2651C75.549 52.2892 73.1394 65.7832 55.308 70.1206C63.0189 64.3374 63.5008 64.0965 67.5972 58.0724Z" fill="#E1E25E"/>
<path d="M73.1394 0C79.6455 0 82.6173 2.65061 83.7418 4.33736C88.7539 10.6988 85.5892 25.3012 83.2599 32.2892C83.2599 22.6506 83.5009 17.8313 81.3322 11.5663C78.9226 5.78314 74.5852 4.81927 69.284 5.78313C63.0189 6.98795 52.6575 9.87952 43.2599 8.19277C58.1997 5.54217 62.0551 0.240964 73.1394 0Z" fill="#70838D"/>
</svg>
