<svg width="16" height="16" viewBox="0 0 16 16" fill="none" xmlns="http://www.w3.org/2000/svg">
<path d="M15.4007 11.025L13.0757 9.55C12.4757 9.225 11.7507 9.35 11.3507 9.875L10.8257 10.675C7.82568 8.875 5.95067 6.475 5.22567 5.4L6.10067 4.875C6.37567 4.675 6.57567 4.4 6.62567 4.075C6.70067 3.75 6.62567 3.4 6.42567 3.15L4.90067 0.949998C4.50067 0.424998 3.77567 0.224998 3.22567 0.549998L1.00067 1.75C0.875675 1.825 0.800675 1.875 0.675675 1.95C-0.999325 3.75 0.525675 7.825 4.40067 11.475C7.20068 14.15 10.2007 15.6 12.3257 15.6C13.1257 15.6 13.8007 15.4 14.2507 15C14.3257 14.925 14.4507 14.8 14.5257 14.725L15.8007 12.725C16.2007 12.15 16.0007 11.35 15.4007 11.025ZM13.4007 14C12.2507 14.95 8.67567 13.75 5.27567 10.55C1.92567 7.35 0.675675 3.95 1.67567 2.875L3.75067 1.675L5.22567 3.8L4.35067 4.325C4.07567 4.525 3.87567 4.8 3.82568 5.125C3.75067 5.45 3.82567 5.8 4.02567 6.05C4.75067 7.125 6.82568 9.85 10.1007 11.85C10.7007 12.175 11.4257 12.05 11.8257 11.525L12.4257 10.65L14.7007 12.05L13.4007 14Z" fill="#3F4549"/>
</svg>
