<svg width="10" height="16" viewBox="0 0 10 16" fill="none" xmlns="http://www.w3.org/2000/svg">
<path d="M8.20001 0H1.80001C1.00001 0 0.325012 0.725 0.325012 1.55V14.475C0.325012 15.35 1.00001 16.025 1.80001 16.025H8.22501C9.02501 16.025 9.70001 15.3 9.70001 14.475V1.55C9.67501 0.725 9.00001 0 8.20001 0ZM8.35001 14.525C8.35001 14.65 8.27501 14.725 8.22501 14.725H1.80001C1.72501 14.725 1.67501 14.65 1.67501 14.525V1.55C1.67501 1.425 1.75001 1.35 1.80001 1.35H8.22501C8.30001 1.35 8.35001 1.425 8.35001 1.55V14.525Z" fill="#3F4549"/>
<path d="M5.00001 14.075C5.3728 14.075 5.67501 13.7728 5.67501 13.4C5.67501 13.0272 5.3728 12.725 5.00001 12.725C4.62722 12.725 4.32501 13.0272 4.32501 13.4C4.32501 13.7728 4.62722 14.075 5.00001 14.075Z" fill="#3F4549"/>
<path d="M5.67502 2.67499H4.35002C3.95002 2.67499 3.67502 2.94999 3.67502 3.34999C3.67502 3.74999 3.95002 4.02499 4.35002 4.02499H5.67502C6.07502 4.02499 6.35002 3.74999 6.35002 3.34999C6.35002 2.94999 6.07502 2.67499 5.67502 2.67499Z" fill="#3F4549"/>
</svg>
