<svg width="16" height="14" viewBox="0 0 16 14" fill="none" xmlns="http://www.w3.org/2000/svg">
<path d="M14.925 4.31323H14.65V1.54222C14.65 1.21173 14.525 0.855816 14.175 0.652439C13.9 0.449061 13.575 0.372795 13.25 0.525328L0.725 4.31323C0.6 4.3895 0.45 4.44035 0.4 4.51661C0.125 4.71999 0 4.99963 0 5.33012V12.728C0 13.3381 0.475 13.8211 1.075 13.8211H14.95C15.55 13.8211 16.025 13.3381 16.025 12.728V5.40639C16 4.79626 15.525 4.31323 14.925 4.31323ZM13.325 1.8727V4.31323H5.4L13.325 1.8727ZM1.325 12.4483V5.68603H14.65V7.03341H11.725C10.6 7.03341 9.725 7.92319 9.725 9.06718C9.725 10.2112 10.6 11.101 11.725 11.101H14.65V12.4483H1.325ZM14.675 8.38079V9.72816H11.725C11.325 9.72816 11.05 9.44852 11.05 9.04176C11.05 8.63501 11.325 8.35536 11.725 8.35536H14.675V8.38079Z" fill="#3F4549"/>
</svg>
