<svg width="24" height="24" viewBox="0 0 24 24" fill="none" xmlns="http://www.w3.org/2000/svg">
<g clip-path="url(#clip0)">
<path d="M23.4751 19.5376L17.9626 13.9876C17.2501 13.2751 16.0501 13.2751 15.3376 13.9876L14.4376 13.0876C16.8376 9.97507 16.6501 5.36257 13.7251 2.47507C12.2251 0.862573 10.2001 0.0750732 8.0251 0.0750732C5.9251 0.0750732 3.9001 0.862573 2.3251 2.47507C-0.787402 5.58757 -0.787402 10.6876 2.3251 13.8001C3.9376 15.3001 5.9251 16.0876 8.0251 16.0876C9.8251 16.0876 11.5501 15.4876 12.9376 14.4001L13.8376 15.3001C13.1251 16.0126 13.1251 17.2126 13.8376 17.9251L19.3501 23.4376C19.7626 23.8501 20.1376 23.9251 20.6626 23.9251C21.1876 23.9251 21.6751 23.7376 21.9751 23.4376L23.3626 22.0501C24.1876 21.4126 24.1876 20.2126 23.4751 19.5376ZM8.0626 14.1001C6.4501 14.1001 4.9501 13.5001 3.8626 12.3001C1.5751 10.0126 1.5751 6.07507 3.8626 3.78757C4.9501 2.70007 6.4876 2.10007 8.0626 2.10007C9.6376 2.10007 11.1751 2.70007 12.2626 3.90007C14.5501 6.18757 14.5501 10.1251 12.2626 12.4126C11.1376 13.5001 9.6376 14.1001 8.0626 14.1001ZM20.7751 22.0126L15.4501 16.7251L16.6501 15.5251L21.9751 20.8501L20.7751 22.0126Z" fill="white"/>
<path d="M10.05 7.0875H9.03755V6.075C9.03755 5.475 8.62505 5.0625 8.02505 5.0625C7.42505 5.0625 7.01255 5.475 7.01255 6.075V7.0875H6.00005C5.40005 7.0875 4.98755 7.5 4.98755 8.1C4.98755 8.7 5.40005 9.1125 6.00005 9.1125H7.01255V10.125C7.01255 10.725 7.42505 11.1375 8.02505 11.1375C8.62505 11.1375 9.03755 10.725 9.03755 10.125V9.1125H10.05C10.65 9.1125 11.0625 8.7 11.0625 8.1C11.0625 7.5 10.65 7.0875 10.05 7.0875Z" fill="white"/>
</g>
<defs>
<clipPath id="clip0">
<rect width="24" height="24" fill="white"/>
</clipPath>
</defs>
</svg>
